<?xml version="1.0" encoding="UTF-8" standalone="no"?>
<!DOCTYPE svg PUBLIC "-//W3C//DTD SVG 1.1//EN"
 "http://www.w3.org/Graphics/SVG/1.1/DTD/svg11.dtd">
<!-- Generated by graphviz version 2.40.1 (20161225.0304)
 -->
<!-- Title: state transitions Pages: 1 -->
<svg width="508pt" height="598pt"
 viewBox="0.00 0.00 508.00 598.00" xmlns="http://www.w3.org/2000/svg" xmlns:xlink="http://www.w3.org/1999/xlink">
<g id="graph0" class="graph" transform="scale(1 1) rotate(0) translate(4 594)">
<title>state transitions</title>
<polygon fill="#ffffff" stroke="transparent" points="-4,4 -4,-594 504,-594 504,4 -4,4"/>
<g id="clust1" class="cluster state regular">
<title>cluster_w_next_state</title>
<path fill="none" stroke="#000000" stroke-width="2" d="M20,-8C20,-8 480,-8 480,-8 486,-8 492,-14 492,-20 492,-20 492,-570 492,-570 492,-576 486,-582 480,-582 480,-582 20,-582 20,-582 14,-582 8,-576 8,-570 8,-570 8,-20 8,-20 8,-14 14,-8 20,-8"/>
<text text-anchor="start" x="214.654" y="-563.2" font-family="Helvetica,sans-Serif" font-size="12.00" fill="#000000">w_next_state</text>
</g>
<!-- w_next_state -->
<!-- IDLE -->
<g id="node2" class="node state regular">
<title>IDLE</title>
<polygon fill="#ffffff" fill-opacity="0.003922" stroke="transparent" stroke-width="2" points="211,-544 155,-544 155,-508 211,-508 211,-544"/>
<text text-anchor="start" x="169.6644" y="-522.2" font-family="Helvetica,sans-Serif" font-size="12.00" fill="#000000">IDLE</text>
<path fill="none" stroke="#000000" stroke-width="2" d="M167.3333,-509C167.3333,-509 198.6667,-509 198.6667,-509 204.3333,-509 210,-514.6667 210,-520.3333 210,-520.3333 210,-531.6667 210,-531.6667 210,-537.3333 204.3333,-543 198.6667,-543 198.6667,-543 167.3333,-543 167.3333,-543 161.6667,-543 156,-537.3333 156,-531.6667 156,-531.6667 156,-520.3333 156,-520.3333 156,-514.6667 161.6667,-509 167.3333,-509"/>
</g>
<!-- IDLE&#45;&gt;IDLE -->
<g id="edge2" class="edge transition">
<title>IDLE&#45;&gt;IDLE</title>
<path fill="none" stroke="#000000" d="M211.0183,-530.8247C222.888,-531.1883 233,-529.5801 233,-526 233,-523.5387 228.2205,-522.0094 221.3762,-521.4121"/>
<polygon fill="#000000" stroke="#000000" points="221.0957,-517.9049 211.0183,-521.1753 220.9356,-524.903 221.0957,-517.9049"/>
<text text-anchor="start" x="233" y="-523" font-family="Helvetica,sans-Serif" font-size="10.00" fill="#000000">not (I_START = &#39;1&#39;) &#160;&#160;</text>
</g>
<!-- LOAD_INPUT -->
<g id="node3" class="node state regular">
<title>LOAD_INPUT</title>
<polygon fill="#ffffff" fill-opacity="0.003922" stroke="transparent" stroke-width="2" points="231.5,-462 134.5,-462 134.5,-426 231.5,-426 231.5,-462"/>
<text text-anchor="start" x="145.832" y="-440.2" font-family="Helvetica,sans-Serif" font-size="12.00" fill="#000000">LOAD_INPUT</text>
<path fill="none" stroke="#000000" stroke-width="2" d="M146.8333,-427C146.8333,-427 219.1667,-427 219.1667,-427 224.8333,-427 230.5,-432.6667 230.5,-438.3333 230.5,-438.3333 230.5,-449.6667 230.5,-449.6667 230.5,-455.3333 224.8333,-461 219.1667,-461 219.1667,-461 146.8333,-461 146.8333,-461 141.1667,-461 135.5,-455.3333 135.5,-449.6667 135.5,-449.6667 135.5,-438.3333 135.5,-438.3333 135.5,-432.6667 141.1667,-427 146.8333,-427"/>
</g>
<!-- IDLE&#45;&gt;LOAD_INPUT -->
<g id="edge1" class="edge transition">
<title>IDLE&#45;&gt;LOAD_INPUT</title>
<path fill="none" stroke="#000000" d="M183,-507.8015C183,-497.3976 183,-484.1215 183,-472.3768"/>
<polygon fill="#000000" stroke="#000000" points="186.5001,-472.1476 183,-462.1476 179.5001,-472.1476 186.5001,-472.1476"/>
<text text-anchor="start" x="183" y="-482" font-family="Helvetica,sans-Serif" font-size="10.00" fill="#000000">I_START = &#39;1&#39; &#160;&#160;</text>
</g>
<!-- CALCULATE_PRODUCTS -->
<g id="node4" class="node state regular">
<title>CALCULATE_PRODUCTS</title>
<polygon fill="#ffffff" fill-opacity="0.003922" stroke="transparent" stroke-width="2" points="210,-380 44,-380 44,-344 210,-344 210,-380"/>
<text text-anchor="start" x="54.6688" y="-358.2" font-family="Helvetica,sans-Serif" font-size="12.00" fill="#000000">CALCULATE_PRODUCTS</text>
<path fill="none" stroke="#000000" stroke-width="2" d="M56.3333,-345C56.3333,-345 197.6667,-345 197.6667,-345 203.3333,-345 209,-350.6667 209,-356.3333 209,-356.3333 209,-367.6667 209,-367.6667 209,-373.3333 203.3333,-379 197.6667,-379 197.6667,-379 56.3333,-379 56.3333,-379 50.6667,-379 45,-373.3333 45,-367.6667 45,-367.6667 45,-356.3333 45,-356.3333 45,-350.6667 50.6667,-345 56.3333,-345"/>
</g>
<!-- LOAD_INPUT&#45;&gt;CALCULATE_PRODUCTS -->
<g id="edge3" class="edge transition">
<title>LOAD_INPUT&#45;&gt;CALCULATE_PRODUCTS</title>
<path fill="none" stroke="#000000" d="M170.5718,-425.8015C163.1042,-414.8668 153.4698,-400.7593 145.1601,-388.5916"/>
<polygon fill="#000000" stroke="#000000" points="147.9234,-386.4317 139.3935,-380.1476 142.1428,-390.3795 147.9234,-386.4317"/>
<text text-anchor="middle" x="159.3895" y="-400" font-family="Helvetica,sans-Serif" font-size="10.00" fill="#000000"> </text>
</g>
<!-- CALCULATE_SUMS -->
<g id="node5" class="node state regular">
<title>CALCULATE_SUMS</title>
<polygon fill="#ffffff" fill-opacity="0.003922" stroke="transparent" stroke-width="2" points="192,-298 58,-298 58,-262 192,-262 192,-298"/>
<text text-anchor="start" x="68.9984" y="-276.2" font-family="Helvetica,sans-Serif" font-size="12.00" fill="#000000">CALCULATE_SUMS</text>
<path fill="none" stroke="#000000" stroke-width="2" d="M70.3333,-263C70.3333,-263 179.6667,-263 179.6667,-263 185.3333,-263 191,-268.6667 191,-274.3333 191,-274.3333 191,-285.6667 191,-285.6667 191,-291.3333 185.3333,-297 179.6667,-297 179.6667,-297 70.3333,-297 70.3333,-297 64.6667,-297 59,-291.3333 59,-285.6667 59,-285.6667 59,-274.3333 59,-274.3333 59,-268.6667 64.6667,-263 70.3333,-263"/>
</g>
<!-- CALCULATE_PRODUCTS&#45;&gt;CALCULATE_SUMS -->
<g id="edge4" class="edge transition">
<title>CALCULATE_PRODUCTS&#45;&gt;CALCULATE_SUMS</title>
<path fill="none" stroke="#000000" d="M126.5561,-343.8015C126.3024,-333.3976 125.9786,-320.1215 125.6921,-308.3768"/>
<polygon fill="#000000" stroke="#000000" points="129.1855,-308.0592 125.4426,-298.1476 122.1876,-308.23 129.1855,-308.0592"/>
<text text-anchor="middle" x="127.3895" y="-318" font-family="Helvetica,sans-Serif" font-size="10.00" fill="#000000"> </text>
</g>
<!-- RESIZE_SUM -->
<g id="node6" class="node state regular">
<title>RESIZE_SUM</title>
<polygon fill="#ffffff" fill-opacity="0.003922" stroke="transparent" stroke-width="2" points="157,-216 59,-216 59,-180 157,-180 157,-216"/>
<text text-anchor="start" x="69.666" y="-194.2" font-family="Helvetica,sans-Serif" font-size="12.00" fill="#000000">RESIZE_SUM</text>
<path fill="none" stroke="#000000" stroke-width="2" d="M71.3333,-181C71.3333,-181 144.6667,-181 144.6667,-181 150.3333,-181 156,-186.6667 156,-192.3333 156,-192.3333 156,-203.6667 156,-203.6667 156,-209.3333 150.3333,-215 144.6667,-215 144.6667,-215 71.3333,-215 71.3333,-215 65.6667,-215 60,-209.3333 60,-203.6667 60,-203.6667 60,-192.3333 60,-192.3333 60,-186.6667 65.6667,-181 71.3333,-181"/>
</g>
<!-- CALCULATE_SUMS&#45;&gt;RESIZE_SUM -->
<g id="edge5" class="edge transition">
<title>CALCULATE_SUMS&#45;&gt;RESIZE_SUM</title>
<path fill="none" stroke="#000000" d="M121.2271,-261.8015C119.0482,-251.2915 116.2616,-237.8503 113.8085,-226.0177"/>
<polygon fill="#000000" stroke="#000000" points="117.2195,-225.2288 111.7623,-216.1476 110.3653,-226.6499 117.2195,-225.2288"/>
<text text-anchor="middle" x="118.3895" y="-236" font-family="Helvetica,sans-Serif" font-size="10.00" fill="#000000"> </text>
</g>
<!-- CALCULATE_QUOTIENT -->
<g id="node7" class="node state regular">
<title>CALCULATE_QUOTIENT</title>
<polygon fill="#ffffff" fill-opacity="0.003922" stroke="transparent" stroke-width="2" points="177.5,-134 16.5,-134 16.5,-98 177.5,-98 177.5,-134"/>
<text text-anchor="start" x="27.8328" y="-112.2" font-family="Helvetica,sans-Serif" font-size="12.00" fill="#000000">CALCULATE_QUOTIENT</text>
<path fill="none" stroke="#000000" stroke-width="2" d="M28.8333,-99C28.8333,-99 165.1667,-99 165.1667,-99 170.8333,-99 176.5,-104.6667 176.5,-110.3333 176.5,-110.3333 176.5,-121.6667 176.5,-121.6667 176.5,-127.3333 170.8333,-133 165.1667,-133 165.1667,-133 28.8333,-133 28.8333,-133 23.1667,-133 17.5,-127.3333 17.5,-121.6667 17.5,-121.6667 17.5,-110.3333 17.5,-110.3333 17.5,-104.6667 23.1667,-99 28.8333,-99"/>
</g>
<!-- RESIZE_SUM&#45;&gt;CALCULATE_QUOTIENT -->
<g id="edge6" class="edge transition">
<title>RESIZE_SUM&#45;&gt;CALCULATE_QUOTIENT</title>
<path fill="none" stroke="#000000" d="M105.5587,-179.8015C104.1631,-169.3976 102.3822,-156.1215 100.8066,-144.3768"/>
<polygon fill="#000000" stroke="#000000" points="104.233,-143.5934 99.4344,-134.1476 97.2951,-144.5242 104.233,-143.5934"/>
<text text-anchor="middle" x="104.3895" y="-154" font-family="Helvetica,sans-Serif" font-size="10.00" fill="#000000"> </text>
</g>
<!-- CALCULATE_QUOTIENT&#45;&gt;CALCULATE_QUOTIENT -->
<g id="edge8" class="edge transition">
<title>CALCULATE_QUOTIENT&#45;&gt;CALCULATE_QUOTIENT</title>
<path fill="none" stroke="#000000" d="M177.7815,-120.4894C190.6747,-119.8324 199.5,-118.3359 199.5,-116 199.5,-114.3575 195.1369,-113.1301 188.0645,-112.3177"/>
<polygon fill="#000000" stroke="#000000" points="188.0248,-108.8039 177.7815,-111.5106 187.477,-115.7825 188.0248,-108.8039"/>
<text text-anchor="start" x="199.5" y="-113" font-family="Helvetica,sans-Serif" font-size="10.00" fill="#000000">not (r_division_wait_counter = c_division_pipeline_length) &#160;&#160;</text>
</g>
<!-- OUTPUT -->
<g id="node8" class="node state regular">
<title>OUTPUT</title>
<polygon fill="#ffffff" fill-opacity="0.003922" stroke="transparent" stroke-width="2" points="308.5,-52 237.5,-52 237.5,-16 308.5,-16 308.5,-52"/>
<text text-anchor="start" x="248.8376" y="-30.2" font-family="Helvetica,sans-Serif" font-size="12.00" fill="#000000">OUTPUT</text>
<path fill="none" stroke="#000000" stroke-width="2" d="M249.8333,-17C249.8333,-17 296.1667,-17 296.1667,-17 301.8333,-17 307.5,-22.6667 307.5,-28.3333 307.5,-28.3333 307.5,-39.6667 307.5,-39.6667 307.5,-45.3333 301.8333,-51 296.1667,-51 296.1667,-51 249.8333,-51 249.8333,-51 244.1667,-51 238.5,-45.3333 238.5,-39.6667 238.5,-39.6667 238.5,-28.3333 238.5,-28.3333 238.5,-22.6667 244.1667,-17 249.8333,-17"/>
</g>
<!-- CALCULATE_QUOTIENT&#45;&gt;OUTPUT -->
<g id="edge7" class="edge transition">
<title>CALCULATE_QUOTIENT&#45;&gt;OUTPUT</title>
<path fill="none" stroke="#000000" d="M136.0601,-97.8015C163.265,-85.1266 199.6196,-68.1886 228.0337,-54.9502"/>
<polygon fill="#000000" stroke="#000000" points="229.7544,-58.0098 237.3407,-50.614 226.7981,-51.6647 229.7544,-58.0098"/>
<text text-anchor="start" x="196" y="-72" font-family="Helvetica,sans-Serif" font-size="10.00" fill="#000000">r_division_wait_counter = c_division_pipeline_length &#160;&#160;</text>
</g>
<!-- OUTPUT&#45;&gt;IDLE -->
<g id="edge9" class="edge transition">
<title>OUTPUT&#45;&gt;IDLE</title>
<path fill="none" stroke="#000000" d="M308.6924,-38.9347C351.2264,-45.2378 419.3884,-56.7993 442,-69 479.8091,-89.4009 482,-114.0381 482,-157 482,-224.5 482,-224.5 482,-224.5 482,-249.1707 481,-255.3293 481,-280 481,-485 481,-485 481,-485 481,-510.9269 301.6816,-521.3011 221.2461,-524.6505"/>
<polygon fill="#000000" stroke="#000000" points="220.8868,-521.162 211.0351,-525.0599 221.1673,-528.1564 220.8868,-521.162"/>
<text text-anchor="middle" x="482.3895" y="-277" font-family="Helvetica,sans-Serif" font-size="10.00" fill="#000000"> </text>
</g>
</g>
</svg>
